<svg width="180" height="180" viewBox="0 0 180 180" fill="none" xmlns="http://www.w3.org/2000/svg">
<path d="M161.25 101.25C161.25 140.6 129.35 172.5 90 172.5C50.6497 172.5 18.75 140.6 18.75 101.25C18.75 61.8997 71.25 22.5 90 7.5C108.75 22.5 161.25 61.8997 161.25 101.25Z" fill="url(#paint0_linear_3345_5343)"/>
<path fill-rule="evenodd" clip-rule="evenodd" d="M158.757 120H21.2428C19.6175 114.026 18.75 107.739 18.75 101.25C18.75 64.0213 65.7415 26.7483 86.6865 10.1351C87.8801 9.18837 88.9891 8.30872 90 7.5C91.0109 8.30872 92.1199 9.18837 93.3135 10.1351C114.258 26.7483 161.25 64.0213 161.25 101.25C161.25 107.739 160.383 114.026 158.757 120Z" fill="#CBEBE9"/>
<ellipse cx="90" cy="120" rx="67.5" ry="11.25" fill="#51BBB3"/>
<path d="M90 33.75C90 31.6789 91.6789 30 93.75 30H116.25C126.605 30 135 38.3947 135 48.75V138.75C135 149.105 126.605 157.5 116.25 157.5H93.75C91.6789 157.5 90 155.821 90 153.75V33.75Z" fill="url(#paint1_linear_3345_5343)"/>
<path d="M90 33.75C90 31.6789 91.6789 30 93.75 30H116.25C126.605 30 135 38.3947 135 48.75V138.75C135 149.105 126.605 157.5 116.25 157.5H93.75C91.6789 157.5 90 155.821 90 153.75V33.75Z" fill="#7EC062"/>
<path d="M90 33.75C90 31.6789 91.6789 30 93.75 30H116.25C126.605 30 135 38.3947 135 48.75V138.75C135 149.105 126.605 157.5 116.25 157.5H93.75C91.6789 157.5 90 155.821 90 153.75V33.75Z" fill="url(#paint2_linear_3345_5343)"/>
<path d="M90 120H135V152.5C135 155.261 132.761 157.5 130 157.5H91C90.4477 157.5 90 157.052 90 156.5V120Z" fill="#438180"/>
<rect x="90" y="45" width="11.25" height="7.5" fill="#273525"/>
<rect x="90" y="90" width="11.25" height="7.5" fill="#273525"/>
<rect x="90" y="135" width="11.25" height="7.5" fill="#273525" fill-opacity="0.5"/>
<rect x="90" y="67.5" width="22.5" height="7.5" fill="#273525"/>
<rect x="90" y="112.5" width="22.5" height="7.5" fill="#273525"/>
<path fill-rule="evenodd" clip-rule="evenodd" d="M135 128.385C123.058 130.167 107.288 131.25 90 131.25V120H135V128.385Z" fill="#51BBB3"/>
<defs>
<linearGradient id="paint0_linear_3345_5343" x1="90" y1="116.25" x2="90" y2="181.875" gradientUnits="userSpaceOnUse">
<stop stop-color="#51BBB3"/>
<stop offset="1" stop-color="#438180"/>
</linearGradient>
<linearGradient id="paint1_linear_3345_5343" x1="91.1142" y1="27.2294" x2="156.576" y2="39.5318" gradientUnits="userSpaceOnUse">
<stop stop-color="#9EC428"/>
<stop offset="1" stop-color="#51BBB3"/>
</linearGradient>
<linearGradient id="paint2_linear_3345_5343" x1="91.1142" y1="27.2294" x2="156.576" y2="39.5318" gradientUnits="userSpaceOnUse">
<stop stop-color="#9EC428"/>
<stop offset="1" stop-color="#51BBB3"/>
</linearGradient>
</defs>
</svg>
