<svg width="38" height="37" viewBox="0 0 38 37" fill="none" xmlns="http://www.w3.org/2000/svg">
  <path d="M23.0628 30.2282L20.286 34.8562C20.1527 35.0783 19.9642 35.2621 19.7388 35.3897C19.5134 35.5174 19.2588 35.5844 18.9998 35.5844C18.7407 35.5844 18.4861 35.5174 18.2607 35.3897C18.0353 35.2621 17.8468 35.0783 17.7135 34.8562L14.9367 30.2282C14.8034 30.0061 14.6149 29.8222 14.3895 29.6946C14.1641 29.567 13.9095 29.4999 13.6505 29.4999H2.49976C2.10193 29.4999 1.7204 29.3419 1.4391 29.0606C1.15779 28.7793 0.999756 28.3977 0.999756 27.9999V4C0.999756 3.60218 1.15779 3.22064 1.4391 2.93934C1.7204 2.65804 2.10193 2.5 2.49976 2.5H35.4998C35.8976 2.5 36.2791 2.65804 36.5604 2.93934C36.8417 3.22064 36.9998 3.60218 36.9998 4V28C36.9998 28.3978 36.8417 28.7794 36.5604 29.0607C36.2791 29.342 35.8976 29.5 35.4998 29.5L24.3491 29.4999C24.09 29.4999 23.8354 29.567 23.61 29.6946C23.3846 29.8222 23.1961 30.0061 23.0628 30.2282V30.2282Z" fill="#F8F8FA" stroke="#9C99B2" stroke-width="1.5" stroke-linecap="round" stroke-linejoin="round"/>
  <path d="M17.0001 22H21.0001" stroke="#9C99B2" stroke-width="1.5" stroke-linecap="round" stroke-linejoin="round"/>
  <path d="M17.5001 24H20.5001" stroke="#9C99B2" stroke-width="1.5" stroke-linecap="round" stroke-linejoin="round"/>
  <path d="M15.9997 20.0002C15.1603 19.3705 14.5402 18.4926 14.2274 17.4909C13.9146 16.4893 13.9249 15.4146 14.2568 14.4191C14.5887 13.4236 15.2254 12.5578 16.0767 11.9442C16.928 11.3306 17.9507 11.0005 19.0001 11.0005C20.0495 11.0005 21.0722 11.3306 21.9236 11.9442C22.7749 12.5577 23.4116 13.4236 23.7434 14.4191C24.0753 15.4146 24.0856 16.4893 23.7728 17.4909C23.46 18.4926 22.84 19.3704 22.0006 20.0002" fill="white"/>
  <path d="M15.9997 20.0002C15.1603 19.3705 14.5402 18.4926 14.2274 17.4909C13.9146 16.4893 13.9249 15.4146 14.2568 14.4191C14.5887 13.4236 15.2254 12.5578 16.0767 11.9442C16.928 11.3306 17.9507 11.0005 19.0001 11.0005C20.0495 11.0005 21.0722 11.3306 21.9236 11.9442C22.7749 12.5577 23.4116 13.4236 23.7434 14.4191C24.0753 15.4146 24.0856 16.4893 23.7728 17.4909C23.46 18.4926 22.84 19.3704 22.0006 20.0002" stroke="#9C99B2" stroke-width="1.5" stroke-linecap="round" stroke-linejoin="round"/>
  <path fill-rule="evenodd" clip-rule="evenodd" d="M29.5 16C29.5 16.2761 29.2761 16.5 29 16.5H27C26.7239 16.5 26.5 16.2761 26.5 16C26.5 15.7239 26.7239 15.5 27 15.5H29C29.2761 15.5 29.5 15.7239 29.5 16Z" fill="#9C99B2"/>
  <path fill-rule="evenodd" clip-rule="evenodd" d="M11.5 16C11.5 16.2761 11.2761 16.5 11 16.5H9C8.72386 16.5 8.5 16.2761 8.5 16C8.5 15.7239 8.72386 15.5 9 15.5H11C11.2761 15.5 11.5 15.7239 11.5 16Z" fill="#9C99B2"/>
  <path fill-rule="evenodd" clip-rule="evenodd" d="M19 8.5C18.7239 8.5 18.5 8.27614 18.5 8L18.5 6C18.5 5.72386 18.7239 5.5 19 5.5C19.2761 5.5 19.5 5.72386 19.5 6L19.5 8C19.5 8.27614 19.2761 8.5 19 8.5Z" fill="#9C99B2"/>
  <path fill-rule="evenodd" clip-rule="evenodd" d="M28.0932 21.2504C27.9551 21.4895 27.6493 21.5715 27.4102 21.4334L25.6781 20.4334C25.439 20.2953 25.357 19.9895 25.4951 19.7504C25.6332 19.5112 25.939 19.4293 26.1781 19.5674L27.9102 20.5674C28.1493 20.7055 28.2313 21.0112 28.0932 21.2504Z" fill="#9C99B2"/>
  <path fill-rule="evenodd" clip-rule="evenodd" d="M12.5048 12.2504C12.3667 12.4895 12.0609 12.5715 11.8218 12.4334L10.0898 11.4334C9.8506 11.2953 9.76867 10.9895 9.90674 10.7504C10.0448 10.5112 10.3506 10.4293 10.5898 10.5674L12.3218 11.5674C12.5609 11.7055 12.6429 12.0112 12.5048 12.2504Z" fill="#9C99B2"/>
  <path fill-rule="evenodd" clip-rule="evenodd" d="M22.7501 9.50433C22.5109 9.36625 22.429 9.06046 22.5671 8.82131L23.5671 7.08926C23.7052 6.85012 24.0109 6.76818 24.2501 6.90625C24.4892 7.04432 24.5712 7.35012 24.4331 7.58926L23.4331 9.32131C23.295 9.56046 22.9892 9.6424 22.7501 9.50433Z" fill="#9C99B2"/>
  <path fill-rule="evenodd" clip-rule="evenodd" d="M15.2496 9.5053C15.0105 9.64337 14.7047 9.56144 14.5666 9.32229L13.5666 7.59024C13.4285 7.35109 13.5105 7.0453 13.7496 6.90723C13.9888 6.76916 14.2945 6.85109 14.4326 7.09024L15.4326 8.82229C15.5707 9.06144 15.4888 9.36723 15.2496 9.5053Z" fill="#9C99B2"/>
  <path fill-rule="evenodd" clip-rule="evenodd" d="M9.90656 21.2496C9.76849 21.0105 9.85043 20.7047 10.0896 20.5666L11.8216 19.5666C12.0608 19.4285 12.3666 19.5105 12.5046 19.7496C12.6427 19.9888 12.5608 20.2945 12.3216 20.4326L10.5896 21.4326C10.3504 21.5707 10.0446 21.4888 9.90656 21.2496Z" fill="#9C99B2"/>
  <path fill-rule="evenodd" clip-rule="evenodd" d="M25.4952 12.2496C25.3571 12.0105 25.4391 11.7047 25.6782 11.5666L27.4102 10.5666C27.6494 10.4285 27.9552 10.5105 28.0933 10.7496C28.2313 10.9888 28.1494 11.2945 27.9102 11.4326L26.1782 12.4326C25.9391 12.5707 25.6333 12.4888 25.4952 12.2496Z" fill="#9C99B2"/>
</svg>
