<svg width="41" height="30" viewBox="0 0 41 30" fill="none" xmlns="http://www.w3.org/2000/svg">
  <path d="M6.83362 27C6.28133 27 5.83362 27.4477 5.83362 28C5.83362 28.5523 6.28133 29 6.83362 29V27ZM35.5407 8.70711C35.9312 8.31658 35.9312 7.68342 35.5407 7.29289L29.1768 0.928932C28.7862 0.538408 28.1531 0.538408 27.7626 0.928932C27.372 1.31946 27.372 1.95262 27.7626 2.34315L33.4194 8L27.7626 13.6569C27.372 14.0474 27.372 14.6805 27.7626 15.0711C28.1531 15.4616 28.7862 15.4616 29.1768 15.0711L35.5407 8.70711ZM6.83362 29H14.3336V27H6.83362V29ZM19.3336 24V12H17.3336V24H19.3336ZM22.3336 9H34.8336V7H22.3336V9ZM19.3336 12C19.3336 10.3431 20.6768 9 22.3336 9V7C19.5722 7 17.3336 9.23858 17.3336 12H19.3336ZM14.3336 29C17.095 29 19.3336 26.7614 19.3336 24H17.3336C17.3336 25.6569 15.9905 27 14.3336 27V29Z" fill="#686583"/>
</svg>
